<svg width="32" height="33" viewBox="0 0 32 33" fill="none" xmlns="http://www.w3.org/2000/svg">
<path d="M26.1333 28.875L17.7333 20.2125C17.0667 20.7625 16.3 21.1979 15.4333 21.5188C14.5667 21.8396 13.6444 22 12.6667 22C10.2444 22 8.19444 21.1349 6.51667 19.4047C4.83889 17.6745 4 15.5604 4 13.0625C4 10.5646 4.83889 8.45052 6.51667 6.72031C8.19444 4.9901 10.2444 4.125 12.6667 4.125C15.0889 4.125 17.1389 4.9901 18.8167 6.72031C20.4944 8.45052 21.3333 10.5646 21.3333 13.0625C21.3333 14.0708 21.1778 15.0219 20.8667 15.9156C20.5556 16.8094 20.1333 17.6 19.6 18.2875L28 26.95L26.1333 28.875ZM12.6667 19.25C14.3333 19.25 15.75 18.6484 16.9167 17.4453C18.0833 16.2422 18.6667 14.7812 18.6667 13.0625C18.6667 11.3438 18.0833 9.88281 16.9167 8.67969C15.75 7.47656 14.3333 6.875 12.6667 6.875C11 6.875 9.58333 7.47656 8.41667 8.67969C7.25 9.88281 6.66667 11.3438 6.66667 13.0625C6.66667 14.7812 7.25 16.2422 8.41667 17.4453C9.58333 18.6484 11 19.25 12.6667 19.25Z" fill="#E8EAED"/>
</svg>
